<svg width="25.048828" height="19.101562" viewBox="0 0 25.0488 19.1016" fill="none" xmlns="http://www.w3.org/2000/svg" xmlns:xlink="http://www.w3.org/1999/xlink">
	<desc>
			Created with Pixso.
	</desc>
	<defs/>
	<path id="Vector" d="M2.52 9.11C2.99 9.11 3.41 8.99 3.79 8.76C4.18 8.54 4.48 8.23 4.71 7.85C4.93 7.46 5.04 7.04 5.04 6.57C5.04 6.11 4.93 5.69 4.71 5.31C4.48 4.93 4.18 4.63 3.79 4.39C3.41 4.16 2.99 4.05 2.52 4.05C2.06 4.05 1.64 4.16 1.25 4.39C0.87 4.62 0.56 4.92 0.34 5.3C0.11 5.68 0 6.1 0 6.57C0 7.04 0.11 7.46 0.34 7.85C0.56 8.23 0.87 8.54 1.25 8.76C1.64 8.99 2.06 9.11 2.52 9.11ZM2.52 7.58C2.25 7.58 2.01 7.48 1.82 7.29C1.62 7.09 1.52 6.85 1.52 6.57C1.52 6.29 1.62 6.06 1.82 5.86C2.01 5.67 2.25 5.57 2.52 5.57C2.8 5.57 3.03 5.67 3.23 5.87C3.42 6.07 3.52 6.3 3.52 6.57C3.52 6.85 3.42 7.09 3.23 7.29C3.04 7.48 2.8 7.58 2.52 7.58ZM12.52 5.04C12.99 5.04 13.41 4.93 13.79 4.7C14.17 4.47 14.47 4.17 14.7 3.79C14.93 3.41 15.04 2.98 15.04 2.51C15.04 2.05 14.93 1.63 14.7 1.25C14.47 0.87 14.17 0.56 13.79 0.34C13.41 0.11 12.99 0 12.52 0C12.06 0 11.63 0.11 11.25 0.34C10.86 0.56 10.56 0.87 10.33 1.25C10.11 1.63 10 2.05 10 2.51C10 2.98 10.11 3.41 10.34 3.79C10.56 4.17 10.87 4.47 11.25 4.7C11.64 4.93 12.06 5.04 12.52 5.04ZM12.52 3.52C12.25 3.52 12.01 3.42 11.82 3.22C11.62 3.02 11.52 2.79 11.52 2.51C11.52 2.23 11.62 2 11.82 1.81C12.01 1.61 12.25 1.52 12.52 1.52C12.79 1.52 13.02 1.62 13.22 1.82C13.42 2.01 13.52 2.25 13.52 2.51C13.52 2.79 13.42 3.02 13.23 3.22C13.04 3.42 12.8 3.52 12.52 3.52ZM22.51 9.11C22.98 9.11 23.4 8.99 23.78 8.76C24.17 8.54 24.47 8.23 24.7 7.85C24.93 7.46 25.04 7.04 25.04 6.57C25.04 6.1 24.93 5.68 24.7 5.3C24.47 4.92 24.17 4.62 23.78 4.39C23.4 4.16 22.98 4.05 22.51 4.05C22.05 4.05 21.63 4.16 21.25 4.39C20.86 4.63 20.56 4.93 20.33 5.31C20.11 5.69 20 6.11 20 6.57C20 7.04 20.11 7.46 20.33 7.85C20.56 8.23 20.86 8.54 21.25 8.76C21.63 8.99 22.05 9.11 22.51 9.11ZM22.51 7.58C22.23 7.58 22 7.48 21.81 7.29C21.61 7.09 21.52 6.85 21.52 6.57C21.52 6.3 21.62 6.07 21.81 5.87C22.01 5.67 22.24 5.57 22.51 5.57C22.79 5.57 23.02 5.67 23.22 5.86C23.42 6.06 23.52 6.29 23.52 6.57C23.52 6.85 23.42 7.09 23.22 7.29C23.02 7.48 22.79 7.58 22.51 7.58ZM3.69 8.46L6.78 10.37C7.09 10.56 7.48 10.64 7.92 10.6C8.37 10.56 8.76 10.33 9.09 9.9L12.78 4.95L11.38 4.35L8.01 8.87C7.92 9 7.82 9.07 7.72 9.09C7.62 9.11 7.48 9.07 7.32 8.97L4.47 7.21L3.69 8.46ZM21.35 8.45L20.57 7.2L17.74 8.94C17.56 9.05 17.42 9.09 17.31 9.07C17.2 9.04 17.09 8.96 17 8.83L13.66 4.33L12.27 4.94L15.97 9.91C16.28 10.33 16.66 10.56 17.1 10.6C17.55 10.64 17.91 10.57 18.19 10.4L21.35 8.45ZM4.92 15.62L20.13 15.62L20.13 14.15L4.92 14.15L4.92 15.62ZM2.48 8.68L4.47 16.79C4.66 17.56 4.97 18.14 5.4 18.52C5.83 18.9 6.45 19.1 7.26 19.1L17.78 19.1C18.59 19.1 19.21 18.9 19.64 18.52C20.08 18.14 20.39 17.56 20.58 16.79L22.57 8.68L21.2 8.05L19.12 16.61C18.95 17.28 18.51 17.62 17.8 17.62L7.25 17.62C6.53 17.62 6.1 17.28 5.93 16.61L3.84 8.05L2.48 8.68Z" fill="#FFFFFF" fill-opacity="0.700000" fill-rule="nonzero"/>
</svg>
