<svg width="18.000000" height="4.000000" viewBox="0 0 18 4" fill="none" xmlns="http://www.w3.org/2000/svg" xmlns:xlink="http://www.w3.org/1999/xlink">
	<desc>
			Created with Pixso.
	</desc>
	<defs/>
	<path id="Union" d="M2 0C0.89 0 0 0.89 0 2C0 3.1 0.89 4 2 4C3.1 4 4 3.1 4 2C4 0.89 3.1 0 2 0ZM7 2C7 0.89 7.89 0 9 0C10.1 0 11 0.89 11 2C11 3.1 10.1 4 9 4C7.89 4 7 3.1 7 2ZM14 2C14 0.89 14.89 0 16 0C17.1 0 18 0.89 18 2C18 3.1 17.1 4 16 4C14.89 4 14 3.1 14 2Z" fill="#FFFFFF" fill-opacity="0.700000" fill-rule="evenodd"/>
</svg>
