<svg width="38.000000" height="38.000000" viewBox="0 0 38 38" fill="none" xmlns="http://www.w3.org/2000/svg" xmlns:xlink="http://www.w3.org/1999/xlink">
	<desc>
			Created with Pixso.
	</desc>
	<defs>
		<clipPath id="clip32_4645">
			<rect id="Property 1=state, state=Default" rx="-0.500000" width="37.000000" height="37.000000" transform="translate(0.500000 0.500000)" fill="white" fill-opacity="0"/>
		</clipPath>
	</defs>
	<rect id="Property 1=state, state=Default" rx="-0.500000" width="37.000000" height="37.000000" transform="translate(0.500000 0.500000)" fill="#000000" fill-opacity="0"/>
	<g clip-path="url(#clip32_4645)">
		<path id="Vector" d="M28 27.5L13.19 27.5C12.07 27.5 11.51 27.5 11.09 27.28C10.71 27.09 10.4 26.78 10.21 26.4C10 25.97 10 25.42 10 24.3L10 22.5L10 12.5M28 14.5L22.15 19.61C21.45 20.22 21.1 20.53 20.72 20.66C20.26 20.81 19.77 20.79 19.33 20.61C18.96 20.46 18.63 20.13 17.98 19.48L17.97 19.47C17.33 18.83 17.01 18.51 16.64 18.35C16.21 18.17 15.72 18.15 15.28 18.29C14.9 18.41 14.55 18.7 13.85 19.28L13.85 19.28L10 22.5" stroke="#FFFFFF" stroke-opacity="0.700000" stroke-width="2.000000" stroke-linejoin="round" stroke-linecap="round"/>
	</g>
</svg>
