<svg width="38.000000" height="38.000000" viewBox="0 0 38 38" fill="none" xmlns="http://www.w3.org/2000/svg" xmlns:xlink="http://www.w3.org/1999/xlink">
	<desc>
			Created with Pixso.
	</desc>
	<defs>
		<clipPath id="clip32_4609">
			<rect id="Property 1=vacance, state=Default" rx="-0.500000" width="37.000000" height="37.000000" transform="translate(0.500000 0.500000)" fill="white" fill-opacity="0"/>
		</clipPath>
	</defs>
	<rect id="Property 1=vacance, state=Default" rx="-0.500000" width="37.000000" height="37.000000" transform="translate(0.500000 0.500000)" fill="#000000" fill-opacity="0"/>
	<g clip-path="url(#clip32_4609)">
		<g opacity="0.000000">
			<path id="Vector" d="M10.68 9.5L27.31 9.5L27.31 28.5L10.68 28.5L10.68 9.5Z" fill="#FFFFFF" fill-opacity="0.700000" fill-rule="evenodd"/>
		</g>
		<path id="Vector" d="M19.07 26.01L25.49 26.01C26.71 26.01 27.31 25.62 27.31 24.82C27.31 24.34 27.17 23.82 26.87 23.27C26.58 22.72 26.15 22.2 25.58 21.71C25.02 21.22 24.34 20.82 23.53 20.51C22.73 20.2 21.82 20.05 20.81 20.05C20.14 20.05 19.51 20.12 18.92 20.27C18.34 20.42 17.81 20.62 17.33 20.87C17.49 20.99 17.64 21.13 17.78 21.27C17.92 21.41 18.05 21.56 18.18 21.72C18.54 21.56 18.94 21.42 19.38 21.32C19.82 21.22 20.3 21.17 20.81 21.17C21.67 21.17 22.42 21.3 23.08 21.54C23.74 21.79 24.29 22.1 24.74 22.47C25.2 22.84 25.54 23.23 25.77 23.63C26 24.03 26.12 24.38 26.12 24.68C26.12 24.76 26.09 24.82 26.05 24.85C26.01 24.88 25.94 24.89 25.85 24.89L19.26 24.89C19.25 25.08 19.23 25.27 19.2 25.46C19.17 25.65 19.13 25.84 19.07 26.01ZM20.81 19.13C21.4 19.13 21.94 18.97 22.43 18.65C22.92 18.33 23.3 17.91 23.59 17.38C23.88 16.85 24.03 16.27 24.03 15.62C24.03 14.99 23.89 14.41 23.6 13.9C23.31 13.39 22.92 12.98 22.44 12.68C21.95 12.37 21.41 12.22 20.81 12.22C20.23 12.22 19.69 12.37 19.2 12.68C18.71 12.99 18.32 13.4 18.03 13.92C17.74 14.44 17.59 15.01 17.59 15.64C17.6 16.28 17.75 16.86 18.04 17.39C18.33 17.92 18.72 18.34 19.2 18.65C19.69 18.97 20.23 19.13 20.81 19.13ZM20.81 18C20.45 18 20.12 17.9 19.81 17.68C19.51 17.47 19.26 17.19 19.07 16.83C18.89 16.47 18.79 16.08 18.79 15.64C18.79 15.21 18.89 14.82 19.07 14.47C19.25 14.13 19.5 13.85 19.8 13.65C20.11 13.45 20.44 13.35 20.81 13.35C21.18 13.35 21.52 13.45 21.83 13.64C22.13 13.84 22.38 14.11 22.56 14.46C22.74 14.8 22.83 15.19 22.83 15.62C22.83 16.06 22.74 16.46 22.56 16.82C22.37 17.18 22.13 17.47 21.82 17.68C21.52 17.89 21.18 18 20.81 18ZM14.46 28.5C14.97 28.5 15.45 28.4 15.91 28.2C16.37 28 16.77 27.73 17.12 27.38C17.47 27.03 17.75 26.63 17.94 26.17C18.14 25.71 18.24 25.23 18.24 24.71C18.24 24.19 18.14 23.7 17.95 23.24C17.75 22.79 17.48 22.39 17.13 22.04C16.79 21.69 16.38 21.42 15.93 21.22C15.47 21.03 14.98 20.93 14.46 20.93C13.94 20.93 13.46 21.03 13 21.22C12.54 21.42 12.14 21.69 11.79 22.04C11.45 22.39 11.17 22.79 10.97 23.25C10.77 23.7 10.68 24.19 10.68 24.71C10.68 25.23 10.77 25.72 10.97 26.18C11.17 26.64 11.45 27.04 11.79 27.39C12.14 27.73 12.54 28 13 28.2C13.46 28.4 13.94 28.5 14.46 28.5ZM12.69 25.29C12.56 25.29 12.45 25.25 12.36 25.15C12.27 25.06 12.22 24.95 12.22 24.83C12.22 24.71 12.27 24.6 12.36 24.51C12.45 24.42 12.56 24.38 12.69 24.38L14.03 24.38L14.03 22.51C14.03 22.38 14.08 22.28 14.17 22.19C14.26 22.1 14.37 22.06 14.5 22.06C14.62 22.06 14.73 22.1 14.82 22.19C14.91 22.28 14.95 22.38 14.95 22.51L14.95 24.83C14.95 24.96 14.91 25.07 14.82 25.16C14.73 25.25 14.63 25.29 14.5 25.29L12.69 25.29Z" fill="#FFFFFF" fill-opacity="0.700000" fill-rule="nonzero"/>
	</g>
</svg>
