<svg width="38.000000" height="38.000000" viewBox="0 0 38 38" fill="none" xmlns="http://www.w3.org/2000/svg" xmlns:xlink="http://www.w3.org/1999/xlink">
	<desc>
			Created with Pixso.
	</desc>
	<defs>
		<clipPath id="clip32_4621">
			<rect id="Property 1=kandidates, state=Default" rx="-0.500000" width="37.000000" height="37.000000" transform="translate(0.500000 0.500000)" fill="white" fill-opacity="0"/>
		</clipPath>
	</defs>
	<rect id="Property 1=kandidates, state=Default" rx="-0.500000" width="37.000000" height="37.000000" transform="translate(0.500000 0.500000)" fill="#000000" fill-opacity="0"/>
	<g clip-path="url(#clip32_4621)">
		<g opacity="0.000000">
			<path id="Vector" d="M13.38 8.44L24.61 8.44L24.61 31.55L13.38 31.55L13.38 8.44Z" fill="#FFFFFF" fill-opacity="0.700000" fill-rule="evenodd"/>
		</g>
		<path id="Vector" d="M17.7 29.44C17.98 29.44 18.21 29.35 18.39 29.17C18.57 29 18.66 28.75 18.66 28.41L18.66 21.7C18.66 21.4 18.78 21.26 19.03 21.26C19.27 21.26 19.39 21.4 19.39 21.7L19.39 28.41C19.39 28.75 19.48 29 19.67 29.17C19.85 29.35 20.08 29.44 20.35 29.44C20.62 29.44 20.85 29.35 21.03 29.17C21.22 29 21.31 28.75 21.31 28.41L21.31 17.13C21.31 16.9 21.41 16.78 21.6 16.78C21.79 16.78 21.89 16.9 21.89 17.13L21.89 21.79C21.89 22.08 21.97 22.32 22.13 22.48C22.29 22.65 22.49 22.73 22.74 22.73C22.99 22.73 23.2 22.65 23.36 22.48C23.51 22.32 23.59 22.08 23.59 21.79L23.59 17.19C23.59 16.29 23.42 15.6 23.09 15.11C22.76 14.62 22.26 14.27 21.59 14.08C20.93 13.89 20.11 13.79 19.12 13.79L17.79 13.79C17.51 13.79 17.27 13.77 17.09 13.71C16.9 13.65 16.69 13.54 16.46 13.38L15.37 12.61L15.16 9.34C15.14 9.04 15.05 8.8 14.87 8.65C14.69 8.5 14.48 8.43 14.22 8.44C13.96 8.46 13.75 8.55 13.59 8.73C13.44 8.91 13.37 9.15 13.39 9.44L13.59 12.66C13.61 13.01 13.69 13.3 13.82 13.52C13.94 13.74 14.11 13.93 14.33 14.09L16.34 15.54C16.5 15.65 16.6 15.77 16.66 15.91C16.72 16.05 16.74 16.21 16.74 16.38L16.74 28.41C16.74 28.75 16.84 29 17.02 29.17C17.2 29.35 17.43 29.44 17.7 29.44ZM19.12 12.94C19.51 12.94 19.86 12.85 20.17 12.66C20.49 12.47 20.74 12.21 20.92 11.9C21.11 11.58 21.2 11.24 21.2 10.86C21.2 10.48 21.11 10.13 20.92 9.81C20.74 9.5 20.49 9.25 20.17 9.06C19.86 8.87 19.51 8.77 19.12 8.77C18.74 8.77 18.39 8.87 18.08 9.06C17.76 9.25 17.51 9.5 17.33 9.81C17.14 10.13 17.05 10.48 17.05 10.86C17.05 11.25 17.14 11.6 17.33 11.91C17.51 12.22 17.76 12.47 18.08 12.66C18.39 12.85 18.74 12.94 19.12 12.94Z" fill="#FFFFFF" fill-opacity="0.700000" fill-rule="nonzero"/>
	</g>
</svg>
