<svg width="38.000000" height="38.000000" viewBox="0 0 38 38" fill="none" xmlns="http://www.w3.org/2000/svg" xmlns:xlink="http://www.w3.org/1999/xlink">
	<desc>
			Created with Pixso.
	</desc>
	<defs>
		<clipPath id="clip32_4633">
			<rect id="Property 1=control, state=Default" rx="-0.500000" width="37.000000" height="37.000000" transform="translate(0.500000 0.500000)" fill="white" fill-opacity="0"/>
		</clipPath>
	</defs>
	<rect id="Property 1=control, state=Default" rx="-0.500000" width="37.000000" height="37.000000" transform="translate(0.500000 0.500000)" fill="#000000" fill-opacity="0"/>
	<g clip-path="url(#clip32_4633)">
		<g opacity="0.000000">
			<path id="Vector" d="M7 12.46L29 12.46L29 26.28L7 26.28L7 12.46Z" fill="#000000" fill-opacity="1.000000" fill-rule="evenodd"/>
		</g>
		<path id="Vector" d="M12.27 18.33C12.27 18.54 12.33 18.71 12.45 18.84C12.57 18.96 12.74 19.03 12.96 19.03L14.45 19.03L14.45 20.48C14.45 20.69 14.51 20.86 14.63 20.98C14.74 21.11 14.9 21.17 15.11 21.17C15.31 21.17 15.47 21.11 15.59 20.98C15.71 20.86 15.77 20.69 15.77 20.48L15.77 19.03L17.17 19.03C17.4 19.03 17.58 18.96 17.71 18.84C17.85 18.71 17.91 18.54 17.91 18.33C17.91 18.12 17.85 17.96 17.71 17.84C17.58 17.72 17.4 17.65 17.17 17.65L15.77 17.65L15.77 16.2C15.77 15.99 15.71 15.82 15.59 15.7C15.47 15.58 15.31 15.52 15.11 15.52C14.9 15.52 14.74 15.58 14.63 15.7C14.51 15.82 14.45 15.99 14.45 16.2L14.45 17.65L12.96 17.65C12.74 17.65 12.57 17.72 12.45 17.84C12.33 17.96 12.27 18.12 12.27 18.33ZM24.16 18.22C24.5 18.22 24.78 18.11 25.01 17.88C25.24 17.65 25.36 17.37 25.36 17.03C25.36 16.69 25.24 16.41 25.01 16.17C24.78 15.94 24.5 15.83 24.16 15.83C23.83 15.83 23.55 15.94 23.31 16.17C23.08 16.41 22.96 16.69 22.96 17.03C22.96 17.37 23.08 17.65 23.31 17.88C23.55 18.11 23.83 18.22 24.16 18.22ZM21.72 20.69C22.06 20.69 22.34 20.57 22.57 20.34C22.8 20.11 22.91 19.83 22.91 19.49C22.91 19.15 22.8 18.87 22.57 18.64C22.34 18.4 22.06 18.29 21.72 18.29C21.38 18.29 21.1 18.4 20.87 18.64C20.64 18.87 20.52 19.15 20.52 19.49C20.52 19.83 20.64 20.11 20.87 20.34C21.1 20.57 21.38 20.69 21.72 20.69ZM7 24.32C7 24.97 7.13 25.54 7.39 26.02C7.65 26.5 8.02 26.87 8.5 27.14C8.98 27.4 9.53 27.53 10.16 27.53C10.64 27.53 11.11 27.43 11.57 27.21C12.03 27 12.43 26.68 12.78 26.25L14.29 24.43C14.4 24.3 14.51 24.2 14.63 24.14C14.76 24.08 14.88 24.05 15 24.05L22.99 24.05C23.11 24.05 23.23 24.08 23.36 24.14C23.48 24.2 23.59 24.3 23.7 24.43L25.21 26.25C25.56 26.68 25.96 27 26.42 27.21C26.88 27.43 27.35 27.53 27.83 27.53C28.46 27.53 29.01 27.4 29.49 27.14C29.97 26.87 30.34 26.5 30.6 26.02C30.86 25.54 31 24.97 31 24.32C31 23.91 30.95 23.46 30.86 22.98C30.77 22.51 30.64 22 30.48 21.46C30.31 20.89 30.11 20.27 29.86 19.6C29.62 18.93 29.36 18.25 29.08 17.57C28.8 16.88 28.52 16.24 28.24 15.64C28 15.14 27.77 14.73 27.56 14.4C27.35 14.06 27.08 13.79 26.76 13.58C26.44 13.37 25.98 13.2 25.39 13.07C24.61 12.89 23.68 12.74 22.61 12.63C21.53 12.52 20.33 12.47 19 12.47C17.67 12.47 16.46 12.52 15.39 12.63C14.31 12.74 13.38 12.89 12.6 13.07C12.01 13.2 11.55 13.37 11.23 13.58C10.91 13.79 10.64 14.06 10.43 14.4C10.22 14.73 9.99 15.14 9.76 15.64C9.47 16.24 9.19 16.88 8.91 17.57C8.63 18.25 8.37 18.93 8.13 19.6C7.88 20.27 7.68 20.89 7.51 21.46C7.35 22 7.22 22.51 7.13 22.98C7.04 23.46 7 23.91 7 24.32ZM8.27 24.37C8.27 24.11 8.3 23.81 8.36 23.48C8.42 23.15 8.52 22.76 8.65 22.31C8.84 21.67 9.06 20.99 9.32 20.26C9.58 19.53 9.86 18.81 10.15 18.09C10.45 17.37 10.73 16.7 11.01 16.08C11.14 15.79 11.27 15.53 11.4 15.31C11.52 15.09 11.68 14.9 11.88 14.75C12.08 14.6 12.36 14.49 12.72 14.4C13.48 14.23 14.38 14.08 15.44 13.97C16.5 13.86 17.69 13.81 19 13.81C20.31 13.81 21.49 13.86 22.55 13.97C23.61 14.08 24.51 14.23 25.27 14.4C25.63 14.49 25.91 14.6 26.1 14.75C26.3 14.9 26.46 15.09 26.58 15.31C26.71 15.53 26.84 15.79 26.98 16.08C27.27 16.7 27.56 17.37 27.84 18.09C28.13 18.81 28.41 19.53 28.66 20.26C28.92 20.99 29.15 21.67 29.34 22.31C29.47 22.76 29.57 23.15 29.63 23.48C29.69 23.81 29.72 24.11 29.72 24.37C29.72 24.95 29.54 25.4 29.19 25.74C28.83 26.07 28.38 26.24 27.84 26.24C27.2 26.24 26.63 25.93 26.12 25.32L24.55 23.43C24.35 23.19 24.15 23.01 23.94 22.89C23.73 22.77 23.43 22.71 23.05 22.71L14.94 22.71C14.56 22.71 14.26 22.77 14.05 22.89C13.84 23.01 13.64 23.19 13.44 23.43L11.87 25.32C11.63 25.61 11.36 25.84 11.06 26C10.77 26.16 10.46 26.24 10.15 26.24C9.61 26.24 9.16 26.07 8.8 25.74C8.45 25.4 8.27 24.95 8.27 24.37Z" fill="#FFFFFF" fill-opacity="0.700000" fill-rule="nonzero"/>
		<path id="Vector" d="M12.45 18.84C12.57 18.96 12.74 19.03 12.96 19.03L14.45 19.03L14.45 20.48C14.45 20.69 14.51 20.86 14.63 20.98C14.74 21.11 14.9 21.17 15.11 21.17C15.31 21.17 15.47 21.11 15.59 20.98C15.71 20.86 15.77 20.69 15.77 20.48L15.77 19.03L17.17 19.03C17.4 19.03 17.58 18.96 17.71 18.84C17.85 18.71 17.91 18.54 17.91 18.33C17.91 18.12 17.85 17.96 17.71 17.84C17.58 17.72 17.4 17.65 17.17 17.65L15.77 17.65L15.77 16.2C15.77 15.99 15.71 15.82 15.59 15.7C15.47 15.58 15.31 15.52 15.11 15.52C14.9 15.52 14.74 15.58 14.63 15.7C14.51 15.82 14.45 15.99 14.45 16.2L14.45 17.65L12.96 17.65C12.74 17.65 12.57 17.72 12.45 17.84C12.33 17.96 12.27 18.12 12.27 18.33C12.27 18.54 12.33 18.71 12.45 18.84ZM25.01 17.88C25.24 17.65 25.36 17.37 25.36 17.03C25.36 16.69 25.24 16.41 25.01 16.17C24.78 15.94 24.5 15.83 24.16 15.83C23.83 15.83 23.55 15.94 23.31 16.17C23.08 16.41 22.96 16.69 22.96 17.03C22.96 17.37 23.08 17.65 23.31 17.88C23.55 18.11 23.83 18.22 24.16 18.22C24.5 18.22 24.78 18.11 25.01 17.88ZM22.57 20.34C22.8 20.11 22.91 19.83 22.91 19.49C22.91 19.15 22.8 18.87 22.57 18.64C22.34 18.4 22.06 18.29 21.72 18.29C21.38 18.29 21.1 18.4 20.87 18.64C20.64 18.87 20.52 19.15 20.52 19.49C20.52 19.83 20.64 20.11 20.87 20.34C21.1 20.57 21.38 20.69 21.72 20.69C22.06 20.69 22.34 20.57 22.57 20.34ZM7.39 26.02C7.65 26.5 8.02 26.87 8.5 27.14C8.98 27.4 9.53 27.53 10.16 27.53C10.64 27.53 11.11 27.43 11.57 27.21C12.03 27 12.43 26.68 12.78 26.25L14.29 24.43C14.4 24.3 14.51 24.2 14.63 24.14C14.76 24.08 14.88 24.05 15 24.05L22.99 24.05C23.11 24.05 23.23 24.08 23.36 24.14C23.48 24.2 23.59 24.3 23.7 24.43L25.21 26.25C25.56 26.68 25.96 27 26.42 27.21C26.88 27.43 27.35 27.53 27.83 27.53C28.46 27.53 29.01 27.4 29.49 27.14C29.97 26.87 30.34 26.5 30.6 26.02C30.86 25.54 31 24.97 31 24.32C31 23.91 30.95 23.46 30.86 22.98C30.77 22.51 30.64 22 30.48 21.46C30.31 20.89 30.11 20.27 29.86 19.6C29.62 18.93 29.36 18.25 29.08 17.57C28.8 16.88 28.52 16.24 28.24 15.64C28 15.14 27.77 14.73 27.56 14.4C27.35 14.06 27.08 13.79 26.76 13.58C26.44 13.37 25.98 13.2 25.39 13.07C24.61 12.89 23.68 12.74 22.61 12.63C21.53 12.52 20.33 12.47 19 12.47C17.67 12.47 16.46 12.52 15.39 12.63C14.31 12.74 13.38 12.89 12.6 13.07C12.01 13.2 11.55 13.37 11.23 13.58C10.91 13.79 10.64 14.06 10.43 14.4C10.22 14.73 9.99 15.14 9.76 15.64C9.47 16.24 9.19 16.88 8.91 17.57C8.63 18.25 8.37 18.93 8.13 19.6C7.88 20.27 7.68 20.89 7.51 21.46C7.35 22 7.22 22.51 7.13 22.98C7.04 23.46 7 23.91 7 24.32C7 24.97 7.13 25.54 7.39 26.02ZM8.36 23.48C8.42 23.15 8.52 22.76 8.65 22.31C8.84 21.67 9.06 20.99 9.32 20.26C9.58 19.53 9.86 18.81 10.15 18.09C10.45 17.37 10.73 16.7 11.01 16.08C11.14 15.79 11.27 15.53 11.4 15.31C11.52 15.09 11.68 14.9 11.88 14.75C12.08 14.6 12.36 14.49 12.72 14.4C13.48 14.23 14.38 14.08 15.44 13.97C16.5 13.86 17.69 13.81 19 13.81C20.31 13.81 21.49 13.86 22.55 13.97C23.61 14.08 24.51 14.23 25.27 14.4C25.63 14.49 25.91 14.6 26.1 14.75C26.3 14.9 26.46 15.09 26.58 15.31C26.71 15.53 26.84 15.79 26.98 16.08C27.27 16.7 27.56 17.37 27.84 18.09C28.13 18.81 28.41 19.53 28.66 20.26C28.92 20.99 29.15 21.67 29.34 22.31C29.47 22.76 29.57 23.15 29.63 23.48C29.69 23.81 29.72 24.11 29.72 24.37C29.72 24.95 29.54 25.4 29.19 25.74C28.83 26.07 28.38 26.24 27.84 26.24C27.2 26.24 26.63 25.93 26.12 25.32L24.55 23.43C24.35 23.19 24.15 23.01 23.94 22.89C23.73 22.77 23.43 22.71 23.05 22.71L14.94 22.71C14.56 22.71 14.26 22.77 14.05 22.89C13.84 23.01 13.64 23.19 13.44 23.43L11.87 25.32C11.63 25.61 11.36 25.84 11.06 26C10.77 26.16 10.46 26.24 10.15 26.24C9.61 26.24 9.16 26.07 8.8 25.74C8.45 25.4 8.27 24.95 8.27 24.37C8.27 24.11 8.3 23.81 8.36 23.48Z" stroke="#FFFFFF" stroke-opacity="0.700000" stroke-width="1.000000"/>
	</g>
</svg>
