<svg width="38.000000" height="38.000000" viewBox="0 0 38 38" fill="none" xmlns="http://www.w3.org/2000/svg" xmlns:xlink="http://www.w3.org/1999/xlink">
	<desc>
			Created with Pixso.
	</desc>
	<defs>
		<clipPath id="clip32_4567">
			<rect id="Property 1=settings, state=Default" rx="-0.500000" width="37.000000" height="37.000000" transform="translate(0.500000 0.500000)" fill="white" fill-opacity="0"/>
		</clipPath>
	</defs>
	<rect id="Property 1=settings, state=Default" rx="-0.500000" width="37.000000" height="37.000000" transform="translate(0.500000 0.500000)" fill="#000000" fill-opacity="0"/>
	<g clip-path="url(#clip32_4567)">
		<path id="Icon" d="M19 22C17.34 22 16 20.65 16 19C16 17.34 17.34 16 19 16C20.65 16 22 17.34 22 19C22 20.65 20.65 22 19 22ZM26.28 22.96C26.34 23.28 26.49 23.58 26.73 23.81L26.79 23.88C26.97 24.06 27.12 24.28 27.22 24.52C27.32 24.77 27.37 25.03 27.37 25.29C27.37 25.55 27.32 25.81 27.22 26.06C27.12 26.3 26.97 26.52 26.79 26.71C26.6 26.89 26.38 27.04 26.14 27.14C25.89 27.24 25.63 27.29 25.37 27.29C25.11 27.29 24.85 27.24 24.6 27.14C24.36 27.04 24.14 26.89 23.96 26.71L23.89 26.65C23.66 26.41 23.36 26.26 23.04 26.2C22.71 26.14 22.38 26.18 22.08 26.31C21.78 26.44 21.53 26.65 21.35 26.92C21.17 27.19 21.08 27.5 21.08 27.83L21.08 28C21.08 28.53 20.86 29.03 20.49 29.41C20.11 29.78 19.61 30 19.08 30C18.54 30 18.04 29.78 17.66 29.41C17.29 29.03 17.08 28.53 17.08 28L17.08 27.91C17.07 27.57 16.96 27.25 16.77 26.98C16.57 26.71 16.31 26.51 16 26.4C15.69 26.26 15.36 26.22 15.03 26.28C14.71 26.34 14.41 26.49 14.17 26.73L14.12 26.79C13.93 26.97 13.71 27.12 13.47 27.22C13.22 27.32 12.96 27.37 12.7 27.37C12.44 27.37 12.18 27.32 11.93 27.22C11.69 27.12 11.47 26.97 11.29 26.79C11.1 26.6 10.95 26.38 10.85 26.14C10.75 25.89 10.7 25.63 10.7 25.37C10.7 25.11 10.75 24.85 10.85 24.6C10.95 24.36 11.1 24.14 11.29 23.96L11.35 23.9C11.58 23.66 11.73 23.36 11.79 23.04C11.85 22.71 11.81 22.38 11.67 22.08C11.55 21.78 11.34 21.53 11.07 21.35C10.8 21.17 10.49 21.08 10.16 21.08L10 21.08C9.46 21.08 8.96 20.86 8.58 20.49C8.21 20.11 8 19.61 8 19.08C8 18.54 8.21 18.04 8.58 17.66C8.96 17.29 9.46 17.08 10 17.08L10.09 17.08C10.42 17.07 10.74 16.96 11.01 16.77C11.28 16.58 11.48 16.31 11.6 16C11.73 15.69 11.77 15.36 11.71 15.03C11.65 14.71 11.5 14.41 11.27 14.18L11.21 14.12C11.02 13.93 10.87 13.71 10.77 13.47C10.67 13.22 10.62 12.96 10.62 12.7C10.62 12.44 10.67 12.18 10.77 11.93C10.87 11.69 11.02 11.47 11.21 11.29C11.39 11.1 11.61 10.95 11.85 10.85C12.1 10.75 12.36 10.7 12.62 10.7C12.88 10.7 13.14 10.75 13.39 10.85C13.63 10.95 13.85 11.1 14.04 11.29L14.1 11.35C14.33 11.58 14.63 11.73 14.95 11.79C15.28 11.85 15.61 11.81 15.91 11.68L16 11.68C16.29 11.55 16.54 11.34 16.72 11.07C16.9 10.8 16.99 10.49 17 10.17L17 10C17 9.46 17.21 8.96 17.58 8.58C17.96 8.21 18.46 8 19 8C19.53 8 20.03 8.21 20.41 8.58C20.78 8.96 21 9.46 21 10L21 10.09C21 10.41 21.09 10.72 21.27 10.99C21.45 11.26 21.7 11.47 22 11.6C22.3 11.73 22.63 11.77 22.96 11.71C23.28 11.65 23.58 11.5 23.82 11.27L23.87 11.21C24.06 11.02 24.28 10.87 24.52 10.77C24.77 10.67 25.03 10.62 25.29 10.62C25.55 10.62 25.81 10.67 26.06 10.77C26.3 10.87 26.52 11.02 26.71 11.21C26.89 11.39 27.04 11.61 27.14 11.85C27.24 12.1 27.29 12.36 27.29 12.62C27.29 12.88 27.24 13.14 27.14 13.39C27.04 13.63 26.89 13.85 26.71 14.04L26.64 14.1C26.41 14.33 26.26 14.63 26.2 14.95C26.14 15.28 26.18 15.61 26.32 15.92L26.32 16C26.44 16.29 26.65 16.54 26.92 16.72C27.19 16.9 27.5 16.99 27.83 17L28 17C28.53 17 29.03 17.21 29.41 17.58C29.78 17.96 30 18.46 30 19C30 19.53 29.78 20.03 29.41 20.41C29.03 20.78 28.53 21 28 21L27.9 21C27.58 21 27.27 21.09 27 21.27C26.73 21.45 26.52 21.7 26.39 22C26.26 22.3 26.22 22.63 26.28 22.96Z" stroke="#FFFFFF" stroke-opacity="0.700000" stroke-width="2.000000" stroke-linejoin="round"/>
	</g>
</svg>
