<svg width="14.630371" height="18.000000" viewBox="0 0 14.6304 18" fill="none" xmlns="http://www.w3.org/2000/svg" xmlns:xlink="http://www.w3.org/1999/xlink">
	<desc>
			Created with Pixso.
	</desc>
	<defs/>
	<path id="Vector" d="M3.46 3.96L4.62 3.96L4.62 2.26C4.62 1.91 4.71 1.63 4.9 1.44C5.09 1.24 5.37 1.15 5.74 1.15L8.9 1.15L8.9 4.82C8.9 5.23 9 5.54 9.21 5.74C9.41 5.94 9.72 6.04 10.13 6.04L13.47 6.04L13.47 12.16C13.47 12.51 13.38 12.79 13.19 12.98C13 13.18 12.72 13.27 12.34 13.27L10.93 13.27L10.93 14.43L12.41 14.43C13.15 14.43 13.7 14.24 14.07 13.86C14.44 13.48 14.63 12.92 14.63 12.18L14.63 6.37C14.63 5.93 14.57 5.56 14.47 5.25C14.36 4.95 14.18 4.66 13.91 4.38L10.3 0.71C10.04 0.45 9.77 0.26 9.46 0.16C9.15 0.05 8.81 0 8.42 0L5.68 0C4.94 0 4.39 0.18 4.02 0.56C3.65 0.94 3.46 1.5 3.46 2.24L3.46 3.96ZM9.94 4.65L9.94 1.71L13.17 5L10.29 5C10.17 5 10.08 4.98 10.02 4.92C9.97 4.87 9.94 4.77 9.94 4.65ZM0 15.75C0 16.5 0.18 17.06 0.55 17.43C0.92 17.81 1.47 18 2.21 18L8.94 18C9.68 18 10.23 17.81 10.6 17.43C10.97 17.05 11.16 16.49 11.16 15.75L11.16 10.16C11.16 9.86 11.14 9.6 11.11 9.39C11.07 9.18 11.01 8.99 10.91 8.81C10.81 8.64 10.67 8.45 10.48 8.26L6.53 4.24C6.26 3.96 6 3.78 5.73 3.69C5.47 3.61 5.14 3.56 4.74 3.56L2.21 3.56C1.47 3.56 0.92 3.75 0.55 4.13C0.18 4.51 0 5.07 0 5.81L0 15.75ZM1.15 15.73L1.15 5.83C1.15 5.47 1.24 5.2 1.43 5.01C1.62 4.81 1.9 4.72 2.27 4.72L4.62 4.72L4.62 8.87C4.62 9.32 4.73 9.66 4.96 9.88C5.18 10.11 5.52 10.22 5.96 10.22L10 10.22L10 15.73C10 16.08 9.91 16.36 9.72 16.55C9.53 16.75 9.25 16.84 8.88 16.84L2.26 16.84C1.9 16.84 1.62 16.75 1.43 16.55C1.24 16.36 1.15 16.08 1.15 15.73ZM6.1 9.14C5.95 9.14 5.85 9.11 5.79 9.05C5.73 8.98 5.7 8.88 5.7 8.74L5.7 4.98L9.78 9.14L6.1 9.14Z" fill="#FFFFFF" fill-opacity="0.700000" fill-rule="evenodd"/>
</svg>
