<svg width="32" height="35" viewBox="0 0 32 35" fill="none" xmlns="http://www.w3.org/2000/svg">
<path d="M10.75 26.5V28.25C10.75 28.9395 10.8858 29.6222 11.1496 30.2592C11.4135 30.896 11.8002 31.4747 12.2877 31.9623C12.7753 32.4498 13.354 32.8366 13.9908 33.1003C14.6278 33.3642 15.3105 33.5 16 33.5C16.6895 33.5 17.3722 33.3642 18.0092 33.1003C18.646 32.8366 19.2247 32.4498 19.7123 31.9623C20.1998 31.4747 20.5866 30.896 20.8503 30.2592C21.1142 29.6222 21.25 28.9395 21.25 28.25V26.5" stroke="#A7A8AA" stroke-width="2.5" stroke-linecap="round" stroke-linejoin="round"/>
<path d="M30 26.5C30 26.5 26.5 17.75 26.5 12.5C26.5 6.781 21.719 2 16 2C10.281 2 5.5 6.781 5.5 12.5C5.5 19.5 2 26.5 2 26.5H30Z" stroke="#A7A8AA" stroke-width="2.5" stroke-linecap="round" stroke-linejoin="round"/>
</svg>
